<?xml version="1.0" encoding="utf-8"?>
<!-- Generator: Adobe Illustrator 22.0.0, SVG Export Plug-In . SVG Version: 6.00 Build 0)  -->
<svg version="1.1" id="Capa_1" xmlns="http://www.w3.org/2000/svg" xmlns:xlink="http://www.w3.org/1999/xlink" x="0px" y="0px"
	 viewBox="0 0 117.4 28.2" style="enable-background:new 0 0 117.4 28.2;" xml:space="preserve">
<style type="text/css">
	.st0{fill:#FFFFFF;}
</style>
<g>
	<path class="st0" d="M11.6,11.2L9.2,12c-0.1-0.6-0.4-1.2-0.9-1.7C7.8,9.8,7.1,9.6,6.1,9.6c-0.8,0-1.4,0.2-1.9,0.7
		c-0.5,0.4-0.8,1-0.8,1.6c0,1.1,0.6,1.7,1.8,2l2.3,0.5c1.4,0.3,2.4,0.8,3.1,1.6c0.7,0.8,1.1,1.8,1.1,2.9c0,1.3-0.5,2.4-1.5,3.3
		s-2.3,1.4-4,1.4c-1.8,0-3.3-0.5-4.3-1.4c-1-1-1.6-2.1-1.7-3.4L2.7,18c0.1,0.9,0.4,1.6,1.1,2.2c0.6,0.6,1.5,0.9,2.5,0.9
		c0.9,0,1.6-0.2,2.1-0.6c0.5-0.4,0.7-0.9,0.7-1.6c0-0.5-0.2-1-0.6-1.3C8.2,17.3,7.6,17,7,16.9l-2.2-0.5c-1.2-0.3-2.2-0.8-2.9-1.5
		c-0.7-0.8-1.1-1.7-1.1-2.9c0-1.3,0.5-2.4,1.6-3.4c1-0.9,2.3-1.4,3.8-1.4c1.7,0,2.9,0.4,3.8,1.2C10.8,9.2,11.4,10.2,11.6,11.2z"/>
	<path class="st0" d="M18.9,12.1c1.6,0,3,0.5,4,1.6c1.1,1.1,1.6,2.4,1.6,4.1c0,1.6-0.5,3-1.6,4.1c-1.1,1.1-2.4,1.6-4,1.6
		c-1.6,0-2.9-0.5-4-1.6c-1.1-1.1-1.6-2.4-1.6-4.1c0-1.6,0.5-3,1.6-4.1C15.9,12.7,17.3,12.1,18.9,12.1z M16.8,20.3
		c0.6,0.6,1.3,0.9,2.1,0.9c0.8,0,1.5-0.3,2.1-0.9c0.6-0.6,0.9-1.4,0.9-2.5c0-1.1-0.3-1.9-0.9-2.5c-0.6-0.6-1.3-0.9-2.1-0.9
		c-0.8,0-1.5,0.3-2.1,0.9c-0.6,0.6-0.9,1.4-0.9,2.5C15.9,18.9,16.2,19.7,16.8,20.3z"/>
	<path class="st0" d="M26,20.3l2.2-0.6c0,0.5,0.3,0.9,0.6,1.3c0.4,0.4,0.9,0.5,1.5,0.5c0.5,0,0.9-0.1,1.2-0.4
		c0.3-0.2,0.4-0.5,0.4-0.9c0-0.6-0.4-1-1.3-1.2l-1.6-0.4c-0.9-0.2-1.6-0.6-2.1-1.1c-0.5-0.6-0.8-1.2-0.8-2c0-0.9,0.4-1.8,1.1-2.4
		c0.8-0.7,1.7-1,2.8-1c0.7,0,1.3,0.1,1.9,0.3c0.5,0.2,1,0.5,1.3,0.8c0.3,0.3,0.5,0.7,0.7,1c0.2,0.3,0.3,0.6,0.3,0.9l-2.2,0.6
		c-0.1-0.4-0.2-0.8-0.6-1.1c-0.3-0.3-0.8-0.5-1.4-0.5c-0.4,0-0.8,0.1-1.1,0.4c-0.3,0.2-0.4,0.5-0.4,0.9c0,0.6,0.4,1,1.1,1.1l1.6,0.3
		c1,0.2,1.8,0.6,2.3,1.2c0.5,0.6,0.8,1.3,0.8,2.1c0,0.9-0.4,1.7-1.1,2.4c-0.7,0.7-1.7,1-3,1c-0.7,0-1.4-0.1-2-0.3
		c-0.6-0.2-1-0.5-1.4-0.8c-0.3-0.3-0.6-0.7-0.8-1C26.1,21,26,20.6,26,20.3z"/>
	<path class="st0" d="M41.6,14.5c-0.8,0-1.5,0.3-2.1,0.9c-0.6,0.6-0.9,1.4-0.9,2.4c0,1,0.3,1.9,0.9,2.5c0.6,0.6,1.3,0.9,2.1,0.9
		c0.8,0,1.3-0.2,1.8-0.6c0.4-0.4,0.7-0.9,0.9-1.4l2.3,0.8c-0.3,1-0.9,1.8-1.7,2.5c-0.8,0.7-1.9,1-3.2,1c-1.6,0-2.9-0.5-4-1.6
		c-1.1-1.1-1.6-2.4-1.6-4.1c0-1.6,0.5-3,1.6-4.1c1.1-1.1,2.4-1.6,3.9-1.6c1.3,0,2.4,0.3,3.3,1c0.8,0.7,1.4,1.5,1.6,2.5l-2.3,0.8
		c-0.1-0.6-0.4-1-0.8-1.4C43,14.7,42.4,14.5,41.6,14.5z"/>
	<path class="st0" d="M55.2,12.4V15c-0.3,0-0.6-0.1-0.8-0.1c-1.9,0-2.9,1.1-2.9,3.2v5.1h-2.6V12.5h2.5v1.7c0.2-0.6,0.7-1,1.2-1.4
		c0.6-0.3,1.2-0.5,1.9-0.5C54.7,12.3,55,12.3,55.2,12.4z"/>
	<path class="st0" d="M64.6,19.4l2.2,0.7c-0.3,1-0.9,1.8-1.7,2.4c-0.8,0.6-1.9,1-3.1,1C60.3,23.5,59,23,58,22
		c-1.1-1-1.6-2.4-1.6-4.2c0-1.6,0.5-3,1.6-4.1c1-1.1,2.3-1.6,3.7-1.6c1.6,0,2.9,0.5,3.9,1.5c0.9,1,1.4,2.4,1.4,4.1
		c0,0.5,0,0.7-0.1,0.8h-7.9c0,0.8,0.3,1.5,0.9,2c0.6,0.5,1.2,0.8,2,0.8C63.2,21.3,64.1,20.7,64.6,19.4z M59,16.6h5.3
		c0-0.7-0.3-1.2-0.7-1.7c-0.4-0.5-1.1-0.7-1.9-0.7c-0.8,0-1.4,0.2-1.9,0.7C59.3,15.5,59,16,59,16.6z"/>
	<path class="st0" d="M68.6,20.3c0-0.9,0.3-1.6,0.9-2.2c0.6-0.6,1.4-0.9,2.4-1l2.8-0.4c0.5-0.1,0.8-0.3,0.8-0.8
		c0-0.5-0.2-0.9-0.5-1.2c-0.3-0.3-0.8-0.5-1.5-0.5c-0.6,0-1.2,0.2-1.5,0.5c-0.4,0.4-0.6,0.8-0.7,1.4l-2.3-0.5c0.1-1,0.6-1.8,1.4-2.5
		c0.8-0.7,1.9-1,3.1-1c1.6,0,2.7,0.4,3.5,1.1C77.6,14,78,15,78,16.1v5.3c0,0.7,0,1.3,0.1,1.7h-2.4c-0.1-0.2-0.1-0.7-0.1-1.4
		c-0.7,1.1-1.8,1.7-3.3,1.7c-1.1,0-2-0.3-2.6-1C69,21.9,68.6,21.2,68.6,20.3z M72.8,21.5c0.8,0,1.4-0.2,1.9-0.7
		c0.5-0.4,0.7-1.1,0.7-2.1v-0.5l-2.8,0.4c-1,0.2-1.4,0.6-1.4,1.5c0,0.4,0.1,0.7,0.4,1C71.9,21.4,72.3,21.5,72.8,21.5z"/>
	<path class="st0" d="M84.2,9.2v3.3h2.2v2.3h-2.2v5c0,0.5,0.1,0.8,0.3,1c0.2,0.2,0.6,0.3,1,0.3c0.3,0,0.6,0,0.9-0.1v2.1
		c-0.4,0.2-0.9,0.2-1.6,0.2c-1,0-1.8-0.3-2.4-0.8c-0.6-0.6-0.9-1.3-0.9-2.4v-5.4h-2v-2.3h0.6c0.5,0,1-0.2,1.2-0.5
		c0.3-0.3,0.4-0.7,0.4-1.2V9.2H84.2z"/>
	<path class="st0" d="M89.2,9.8c-0.3-0.3-0.5-0.7-0.5-1.2c0-0.5,0.2-0.8,0.5-1.2C89.5,7.2,89.9,7,90.4,7c0.5,0,0.9,0.2,1.2,0.5
		C91.9,7.8,92,8.2,92,8.7c0,0.5-0.2,0.8-0.5,1.2c-0.3,0.3-0.7,0.5-1.2,0.5C89.9,10.3,89.5,10.2,89.2,9.8z M91.6,23.2h-2.5V12.5h2.5
		V23.2z"/>
	<path class="st0" d="M104.7,12.5l-4.2,10.7h-2.6l-4.4-10.7h2.8l2.8,7.7l2.8-7.7H104.7z"/>
	<path class="st0" d="M110.9,12.1c1.6,0,3,0.5,4,1.6c1.1,1.1,1.6,2.4,1.6,4.1c0,1.6-0.5,3-1.6,4.1c-1.1,1.1-2.4,1.6-4,1.6
		c-1.6,0-2.9-0.5-4-1.6c-1.1-1.1-1.6-2.4-1.6-4.1c0-1.6,0.5-3,1.6-4.1C108,12.7,109.3,12.1,110.9,12.1z M108.8,20.3
		c0.6,0.6,1.3,0.9,2.1,0.9c0.8,0,1.5-0.3,2.1-0.9c0.6-0.6,0.9-1.4,0.9-2.5c0-1.1-0.3-1.9-0.9-2.5c-0.6-0.6-1.3-0.9-2.1-0.9
		c-0.8,0-1.5,0.3-2.1,0.9c-0.6,0.6-0.9,1.4-0.9,2.5C107.9,18.9,108.2,19.7,108.8,20.3z"/>
</g>
</svg>
